<mxfile host="app.diagrams.net" modified="2024-02-09T06:42:46.360Z" agent="Mozilla/5.0 (Windows NT 10.0; Win64; x64) AppleWebKit/537.36 (KHTML, like Gecko) Chrome/121.0.0.0 Safari/537.36" etag="1Posrsa1UyQITcLKOJQg" version="23.1.1" type="device">
  <diagram name="Page-1" id="KxSayG_fWBxNicN8Y_Lq">
    <mxGraphModel dx="2062" dy="655" grid="1" gridSize="10" guides="1" tooltips="1" connect="1" arrows="1" fold="1" page="1" pageScale="1" pageWidth="827" pageHeight="1169" math="0" shadow="0">
      <root>
        <mxCell id="0" />
        <mxCell id="1" parent="0" />
        <object label="Employee" DateOfBirth="asd" id="m9SJlO2-lQK2_VNLmcXq-19">
          <mxCell style="swimlane;fontStyle=0;childLayout=stackLayout;horizontal=1;startSize=26;fillColor=none;horizontalStack=0;resizeParent=1;resizeParentMax=0;resizeLast=0;collapsible=1;marginBottom=0;whiteSpace=wrap;html=1;" parent="1" vertex="1">
            <mxGeometry x="-60" y="68" width="160" height="110" as="geometry" />
          </mxCell>
        </object>
        <mxCell id="m9SJlO2-lQK2_VNLmcXq-20" value="+ PK_EmployeeID: Int" style="text;strokeColor=none;fillColor=none;align=left;verticalAlign=top;spacingLeft=4;spacingRight=4;overflow=hidden;rotatable=0;points=[[0,0.5],[1,0.5]];portConstraint=eastwest;whiteSpace=wrap;html=1;" parent="m9SJlO2-lQK2_VNLmcXq-19" vertex="1">
          <mxGeometry y="26" width="160" height="26" as="geometry" />
        </mxCell>
        <mxCell id="m9SJlO2-lQK2_VNLmcXq-67" value="+ FK_PersonID: Int" style="text;strokeColor=none;fillColor=none;align=left;verticalAlign=top;spacingLeft=4;spacingRight=4;overflow=hidden;rotatable=0;points=[[0,0.5],[1,0.5]];portConstraint=eastwest;whiteSpace=wrap;html=1;" parent="m9SJlO2-lQK2_VNLmcXq-19" vertex="1">
          <mxGeometry y="52" width="160" height="26" as="geometry" />
        </mxCell>
        <object label="+ IDNumber: VARCHAR" DateOfBirth="" IDNumber="" id="OPJqrjEMAeE4ub3QpKRw-2">
          <mxCell style="text;strokeColor=none;fillColor=none;align=left;verticalAlign=top;spacingLeft=4;spacingRight=4;overflow=hidden;rotatable=0;points=[[0,0.5],[1,0.5]];portConstraint=eastwest;whiteSpace=wrap;html=1;" parent="m9SJlO2-lQK2_VNLmcXq-19" vertex="1">
            <mxGeometry y="78" width="160" height="32" as="geometry" />
          </mxCell>
        </object>
        <object label="OrderRecords" DateOfBirth="asd" id="m9SJlO2-lQK2_VNLmcXq-28">
          <mxCell style="swimlane;fontStyle=0;childLayout=stackLayout;horizontal=1;startSize=26;fillColor=none;horizontalStack=0;resizeParent=1;resizeParentMax=0;resizeLast=0;collapsible=1;marginBottom=0;whiteSpace=wrap;html=1;" parent="1" vertex="1">
            <mxGeometry x="160" y="40" width="160" height="168" as="geometry" />
          </mxCell>
        </object>
        <mxCell id="m9SJlO2-lQK2_VNLmcXq-29" value="+ PK_OrderID: Int" style="text;strokeColor=none;fillColor=none;align=left;verticalAlign=top;spacingLeft=4;spacingRight=4;overflow=hidden;rotatable=0;points=[[0,0.5],[1,0.5]];portConstraint=eastwest;whiteSpace=wrap;html=1;" parent="m9SJlO2-lQK2_VNLmcXq-28" vertex="1">
          <mxGeometry y="26" width="160" height="26" as="geometry" />
        </mxCell>
        <mxCell id="m9SJlO2-lQK2_VNLmcXq-46" value="+ FK_EmployeeID: Int" style="text;strokeColor=none;fillColor=none;align=left;verticalAlign=top;spacingLeft=4;spacingRight=4;overflow=hidden;rotatable=0;points=[[0,0.5],[1,0.5]];portConstraint=eastwest;whiteSpace=wrap;html=1;" parent="m9SJlO2-lQK2_VNLmcXq-28" vertex="1">
          <mxGeometry y="52" width="160" height="26" as="geometry" />
        </mxCell>
        <mxCell id="m9SJlO2-lQK2_VNLmcXq-30" value="+ FK_Customer: Int" style="text;strokeColor=none;fillColor=none;align=left;verticalAlign=top;spacingLeft=4;spacingRight=4;overflow=hidden;rotatable=0;points=[[0,0.5],[1,0.5]];portConstraint=eastwest;whiteSpace=wrap;html=1;" parent="m9SJlO2-lQK2_VNLmcXq-28" vertex="1">
          <mxGeometry y="78" width="160" height="26" as="geometry" />
        </mxCell>
        <object label="+&amp;nbsp;SaleDateTime: Date" DateOfBirth="" IDNumber="" id="m9SJlO2-lQK2_VNLmcXq-31">
          <mxCell style="text;strokeColor=none;fillColor=none;align=left;verticalAlign=top;spacingLeft=4;spacingRight=4;overflow=hidden;rotatable=0;points=[[0,0.5],[1,0.5]];portConstraint=eastwest;whiteSpace=wrap;html=1;" parent="m9SJlO2-lQK2_VNLmcXq-28" vertex="1">
            <mxGeometry y="104" width="160" height="32" as="geometry" />
          </mxCell>
        </object>
        <object label="+&amp;nbsp;TipAdded: DECIMAL" DateOfBirth="" IDNumber="" id="m9SJlO2-lQK2_VNLmcXq-32">
          <mxCell style="text;strokeColor=none;fillColor=none;align=left;verticalAlign=top;spacingLeft=4;spacingRight=4;overflow=hidden;rotatable=0;points=[[0,0.5],[1,0.5]];portConstraint=eastwest;whiteSpace=wrap;html=1;" parent="m9SJlO2-lQK2_VNLmcXq-28" vertex="1">
            <mxGeometry y="136" width="160" height="32" as="geometry" />
          </mxCell>
        </object>
        <object label="MenuItem" DateOfBirth="asd" id="m9SJlO2-lQK2_VNLmcXq-36">
          <mxCell style="swimlane;fontStyle=0;childLayout=stackLayout;horizontal=1;startSize=26;fillColor=none;horizontalStack=0;resizeParent=1;resizeParentMax=0;resizeLast=0;collapsible=1;marginBottom=0;whiteSpace=wrap;html=1;" parent="1" vertex="1">
            <mxGeometry x="410" y="208" width="160" height="110" as="geometry" />
          </mxCell>
        </object>
        <mxCell id="m9SJlO2-lQK2_VNLmcXq-37" value="+ PK_MenuItemID: Int" style="text;strokeColor=none;fillColor=none;align=left;verticalAlign=top;spacingLeft=4;spacingRight=4;overflow=hidden;rotatable=0;points=[[0,0.5],[1,0.5]];portConstraint=eastwest;whiteSpace=wrap;html=1;" parent="m9SJlO2-lQK2_VNLmcXq-36" vertex="1">
          <mxGeometry y="26" width="160" height="26" as="geometry" />
        </mxCell>
        <mxCell id="m9SJlO2-lQK2_VNLmcXq-38" value="+ Price: DECIMAL" style="text;strokeColor=none;fillColor=none;align=left;verticalAlign=top;spacingLeft=4;spacingRight=4;overflow=hidden;rotatable=0;points=[[0,0.5],[1,0.5]];portConstraint=eastwest;whiteSpace=wrap;html=1;" parent="m9SJlO2-lQK2_VNLmcXq-36" vertex="1">
          <mxGeometry y="52" width="160" height="26" as="geometry" />
        </mxCell>
        <object label="+&amp;nbsp;Description: VARCHAR" DateOfBirth="" IDNumber="" id="m9SJlO2-lQK2_VNLmcXq-39">
          <mxCell style="text;strokeColor=none;fillColor=none;align=left;verticalAlign=top;spacingLeft=4;spacingRight=4;overflow=hidden;rotatable=0;points=[[0,0.5],[1,0.5]];portConstraint=eastwest;whiteSpace=wrap;html=1;" parent="m9SJlO2-lQK2_VNLmcXq-36" vertex="1">
            <mxGeometry y="78" width="160" height="32" as="geometry" />
          </mxCell>
        </object>
        <object label="MenuItemsOrdered" DateOfBirth="asd" id="m9SJlO2-lQK2_VNLmcXq-41">
          <mxCell style="swimlane;fontStyle=0;childLayout=stackLayout;horizontal=1;startSize=26;fillColor=none;horizontalStack=0;resizeParent=1;resizeParentMax=0;resizeLast=0;collapsible=1;marginBottom=0;whiteSpace=wrap;html=1;" parent="1" vertex="1">
            <mxGeometry x="390" y="14" width="160" height="110" as="geometry" />
          </mxCell>
        </object>
        <mxCell id="m9SJlO2-lQK2_VNLmcXq-42" value="+ FK_MenuItemID: Int&amp;nbsp;" style="text;strokeColor=none;fillColor=none;align=left;verticalAlign=top;spacingLeft=4;spacingRight=4;overflow=hidden;rotatable=0;points=[[0,0.5],[1,0.5]];portConstraint=eastwest;whiteSpace=wrap;html=1;" parent="m9SJlO2-lQK2_VNLmcXq-41" vertex="1">
          <mxGeometry y="26" width="160" height="26" as="geometry" />
        </mxCell>
        <mxCell id="m9SJlO2-lQK2_VNLmcXq-43" value="+ FK_OrderID: Int" style="text;strokeColor=none;fillColor=none;align=left;verticalAlign=top;spacingLeft=4;spacingRight=4;overflow=hidden;rotatable=0;points=[[0,0.5],[1,0.5]];portConstraint=eastwest;whiteSpace=wrap;html=1;" parent="m9SJlO2-lQK2_VNLmcXq-41" vertex="1">
          <mxGeometry y="52" width="160" height="26" as="geometry" />
        </mxCell>
        <object label="+ Quantity: Int" DateOfBirth="" IDNumber="" id="m9SJlO2-lQK2_VNLmcXq-44">
          <mxCell style="text;strokeColor=none;fillColor=none;align=left;verticalAlign=top;spacingLeft=4;spacingRight=4;overflow=hidden;rotatable=0;points=[[0,0.5],[1,0.5]];portConstraint=eastwest;whiteSpace=wrap;html=1;" parent="m9SJlO2-lQK2_VNLmcXq-41" vertex="1">
            <mxGeometry y="78" width="160" height="32" as="geometry" />
          </mxCell>
        </object>
        <object label="Customer" DateOfBirth="asd" id="m9SJlO2-lQK2_VNLmcXq-50">
          <mxCell style="swimlane;fontStyle=0;childLayout=stackLayout;horizontal=1;startSize=26;fillColor=none;horizontalStack=0;resizeParent=1;resizeParentMax=0;resizeLast=0;collapsible=1;marginBottom=0;whiteSpace=wrap;html=1;" parent="1" vertex="1">
            <mxGeometry x="-60" y="330" width="160" height="104" as="geometry" />
          </mxCell>
        </object>
        <mxCell id="m9SJlO2-lQK2_VNLmcXq-51" value="+ PK_CustomerID: Int" style="text;strokeColor=none;fillColor=none;align=left;verticalAlign=top;spacingLeft=4;spacingRight=4;overflow=hidden;rotatable=0;points=[[0,0.5],[1,0.5]];portConstraint=eastwest;whiteSpace=wrap;html=1;" parent="m9SJlO2-lQK2_VNLmcXq-50" vertex="1">
          <mxGeometry y="26" width="160" height="26" as="geometry" />
        </mxCell>
        <mxCell id="m9SJlO2-lQK2_VNLmcXq-70" value="+ FK_PersonID: Int" style="text;strokeColor=none;fillColor=none;align=left;verticalAlign=top;spacingLeft=4;spacingRight=4;overflow=hidden;rotatable=0;points=[[0,0.5],[1,0.5]];portConstraint=eastwest;whiteSpace=wrap;html=1;" parent="m9SJlO2-lQK2_VNLmcXq-50" vertex="1">
          <mxGeometry y="52" width="160" height="26" as="geometry" />
        </mxCell>
        <mxCell id="m9SJlO2-lQK2_VNLmcXq-53" value="+ JoiningDate: Date" style="text;strokeColor=none;fillColor=none;align=left;verticalAlign=top;spacingLeft=4;spacingRight=4;overflow=hidden;rotatable=0;points=[[0,0.5],[1,0.5]];portConstraint=eastwest;whiteSpace=wrap;html=1;" parent="m9SJlO2-lQK2_VNLmcXq-50" vertex="1">
          <mxGeometry y="78" width="160" height="26" as="geometry" />
        </mxCell>
        <object label="Person" DateOfBirth="asd" id="m9SJlO2-lQK2_VNLmcXq-56">
          <mxCell style="swimlane;fontStyle=0;childLayout=stackLayout;horizontal=1;startSize=26;fillColor=none;horizontalStack=0;resizeParent=1;resizeParentMax=0;resizeLast=0;collapsible=1;marginBottom=0;whiteSpace=wrap;html=1;" parent="1" vertex="1">
            <mxGeometry x="-280" y="240" width="160" height="142" as="geometry" />
          </mxCell>
        </object>
        <mxCell id="m9SJlO2-lQK2_VNLmcXq-62" value="+ PK_PersonID: Int" style="text;strokeColor=none;fillColor=none;align=left;verticalAlign=top;spacingLeft=4;spacingRight=4;overflow=hidden;rotatable=0;points=[[0,0.5],[1,0.5]];portConstraint=eastwest;whiteSpace=wrap;html=1;" parent="m9SJlO2-lQK2_VNLmcXq-56" vertex="1">
          <mxGeometry y="26" width="160" height="26" as="geometry" />
        </mxCell>
        <mxCell id="m9SJlO2-lQK2_VNLmcXq-66" value="+ FirstName: VARCHAR" style="text;strokeColor=none;fillColor=none;align=left;verticalAlign=top;spacingLeft=4;spacingRight=4;overflow=hidden;rotatable=0;points=[[0,0.5],[1,0.5]];portConstraint=eastwest;whiteSpace=wrap;html=1;" parent="m9SJlO2-lQK2_VNLmcXq-56" vertex="1">
          <mxGeometry y="52" width="160" height="26" as="geometry" />
        </mxCell>
        <object label="+ DateOfBirth: Date" DateOfBirth="" IDNumber="" id="m9SJlO2-lQK2_VNLmcXq-64">
          <mxCell style="text;strokeColor=none;fillColor=none;align=left;verticalAlign=top;spacingLeft=4;spacingRight=4;overflow=hidden;rotatable=0;points=[[0,0.5],[1,0.5]];portConstraint=eastwest;whiteSpace=wrap;html=1;" parent="m9SJlO2-lQK2_VNLmcXq-56" vertex="1">
            <mxGeometry y="78" width="160" height="32" as="geometry" />
          </mxCell>
        </object>
        <object label="+ LastName: VARCHAR&lt;br&gt;" DateOfBirth="" IDNumber="" id="m9SJlO2-lQK2_VNLmcXq-63">
          <mxCell style="text;strokeColor=none;fillColor=none;align=left;verticalAlign=top;spacingLeft=4;spacingRight=4;overflow=hidden;rotatable=0;points=[[0,0.5],[1,0.5]];portConstraint=eastwest;whiteSpace=wrap;html=1;" parent="m9SJlO2-lQK2_VNLmcXq-56" vertex="1">
            <mxGeometry y="110" width="160" height="32" as="geometry" />
          </mxCell>
        </object>
        <object label="Rating" DateOfBirth="asd" id="m9SJlO2-lQK2_VNLmcXq-72">
          <mxCell style="swimlane;fontStyle=0;childLayout=stackLayout;horizontal=1;startSize=26;fillColor=none;horizontalStack=0;resizeParent=1;resizeParentMax=0;resizeLast=0;collapsible=1;marginBottom=0;whiteSpace=wrap;html=1;" parent="1" vertex="1">
            <mxGeometry x="190" y="304" width="160" height="156" as="geometry" />
          </mxCell>
        </object>
        <mxCell id="m9SJlO2-lQK2_VNLmcXq-81" value="+ PK_RatingID: Int" style="text;strokeColor=none;fillColor=none;align=left;verticalAlign=top;spacingLeft=4;spacingRight=4;overflow=hidden;rotatable=0;points=[[0,0.5],[1,0.5]];portConstraint=eastwest;whiteSpace=wrap;html=1;" parent="m9SJlO2-lQK2_VNLmcXq-72" vertex="1">
          <mxGeometry y="26" width="160" height="26" as="geometry" />
        </mxCell>
        <mxCell id="m9SJlO2-lQK2_VNLmcXq-73" value="+ FK_CustomerID: Int" style="text;strokeColor=none;fillColor=none;align=left;verticalAlign=top;spacingLeft=4;spacingRight=4;overflow=hidden;rotatable=0;points=[[0,0.5],[1,0.5]];portConstraint=eastwest;whiteSpace=wrap;html=1;" parent="m9SJlO2-lQK2_VNLmcXq-72" vertex="1">
          <mxGeometry y="52" width="160" height="26" as="geometry" />
        </mxCell>
        <mxCell id="m9SJlO2-lQK2_VNLmcXq-74" value="+ FK_MenuItemID: Int" style="text;strokeColor=none;fillColor=none;align=left;verticalAlign=top;spacingLeft=4;spacingRight=4;overflow=hidden;rotatable=0;points=[[0,0.5],[1,0.5]];portConstraint=eastwest;whiteSpace=wrap;html=1;" parent="m9SJlO2-lQK2_VNLmcXq-72" vertex="1">
          <mxGeometry y="78" width="160" height="26" as="geometry" />
        </mxCell>
        <mxCell id="m9SJlO2-lQK2_VNLmcXq-75" value="+ Stars : Int" style="text;strokeColor=none;fillColor=none;align=left;verticalAlign=top;spacingLeft=4;spacingRight=4;overflow=hidden;rotatable=0;points=[[0,0.5],[1,0.5]];portConstraint=eastwest;whiteSpace=wrap;html=1;" parent="m9SJlO2-lQK2_VNLmcXq-72" vertex="1">
          <mxGeometry y="104" width="160" height="26" as="geometry" />
        </mxCell>
        <mxCell id="m9SJlO2-lQK2_VNLmcXq-80" value="+ Description: VARCHAR" style="text;strokeColor=none;fillColor=none;align=left;verticalAlign=top;spacingLeft=4;spacingRight=4;overflow=hidden;rotatable=0;points=[[0,0.5],[1,0.5]];portConstraint=eastwest;whiteSpace=wrap;html=1;" parent="m9SJlO2-lQK2_VNLmcXq-72" vertex="1">
          <mxGeometry y="130" width="160" height="26" as="geometry" />
        </mxCell>
        <mxCell id="gUftmRRF79kb_P5Z-98f-3" value="" style="edgeStyle=entityRelationEdgeStyle;fontSize=12;html=1;endArrow=ERmany;startArrow=ERmany;rounded=0;exitX=1;exitY=0.5;exitDx=0;exitDy=0;entryX=0;entryY=0.5;entryDx=0;entryDy=0;" edge="1" parent="1" source="m9SJlO2-lQK2_VNLmcXq-62" target="m9SJlO2-lQK2_VNLmcXq-67">
          <mxGeometry width="100" height="100" relative="1" as="geometry">
            <mxPoint x="-10" y="310" as="sourcePoint" />
            <mxPoint x="90" y="210" as="targetPoint" />
          </mxGeometry>
        </mxCell>
        <mxCell id="gUftmRRF79kb_P5Z-98f-4" value="" style="edgeStyle=entityRelationEdgeStyle;fontSize=12;html=1;endArrow=ERmany;startArrow=ERmany;rounded=0;exitX=1;exitY=0.5;exitDx=0;exitDy=0;entryX=0;entryY=0.5;entryDx=0;entryDy=0;" edge="1" parent="1" source="m9SJlO2-lQK2_VNLmcXq-62" target="m9SJlO2-lQK2_VNLmcXq-70">
          <mxGeometry width="100" height="100" relative="1" as="geometry">
            <mxPoint x="-10" y="310" as="sourcePoint" />
            <mxPoint x="90" y="210" as="targetPoint" />
          </mxGeometry>
        </mxCell>
        <mxCell id="gUftmRRF79kb_P5Z-98f-6" value="" style="edgeStyle=entityRelationEdgeStyle;fontSize=12;html=1;endArrow=ERzeroToMany;startArrow=ERzeroToOne;rounded=0;entryX=0;entryY=0.5;entryDx=0;entryDy=0;" edge="1" parent="1" source="m9SJlO2-lQK2_VNLmcXq-20" target="m9SJlO2-lQK2_VNLmcXq-46">
          <mxGeometry width="100" height="100" relative="1" as="geometry">
            <mxPoint x="120" y="320" as="sourcePoint" />
            <mxPoint x="220" y="220" as="targetPoint" />
          </mxGeometry>
        </mxCell>
        <mxCell id="gUftmRRF79kb_P5Z-98f-7" value="" style="edgeStyle=entityRelationEdgeStyle;fontSize=12;html=1;endArrow=ERzeroToMany;startArrow=ERzeroToOne;rounded=0;exitX=1;exitY=0.5;exitDx=0;exitDy=0;entryX=0;entryY=0.5;entryDx=0;entryDy=0;" edge="1" parent="1" source="m9SJlO2-lQK2_VNLmcXq-51" target="m9SJlO2-lQK2_VNLmcXq-30">
          <mxGeometry width="100" height="100" relative="1" as="geometry">
            <mxPoint x="120" y="360" as="sourcePoint" />
            <mxPoint x="220" y="260" as="targetPoint" />
          </mxGeometry>
        </mxCell>
        <mxCell id="gUftmRRF79kb_P5Z-98f-8" value="" style="edgeStyle=entityRelationEdgeStyle;fontSize=12;html=1;endArrow=ERzeroToMany;startArrow=ERzeroToOne;rounded=0;exitX=1;exitY=0.5;exitDx=0;exitDy=0;entryX=0;entryY=0.5;entryDx=0;entryDy=0;" edge="1" parent="1" source="m9SJlO2-lQK2_VNLmcXq-51" target="m9SJlO2-lQK2_VNLmcXq-73">
          <mxGeometry width="100" height="100" relative="1" as="geometry">
            <mxPoint x="150" y="396" as="sourcePoint" />
            <mxPoint x="250" y="296" as="targetPoint" />
          </mxGeometry>
        </mxCell>
        <mxCell id="gUftmRRF79kb_P5Z-98f-10" value="" style="edgeStyle=entityRelationEdgeStyle;fontSize=12;html=1;endArrow=ERoneToMany;startArrow=ERmandOne;rounded=0;entryX=0;entryY=0.5;entryDx=0;entryDy=0;" edge="1" parent="1" source="m9SJlO2-lQK2_VNLmcXq-29" target="m9SJlO2-lQK2_VNLmcXq-43">
          <mxGeometry width="100" height="100" relative="1" as="geometry">
            <mxPoint x="330" y="80" as="sourcePoint" />
            <mxPoint x="430" y="-20" as="targetPoint" />
          </mxGeometry>
        </mxCell>
        <mxCell id="gUftmRRF79kb_P5Z-98f-11" value="" style="edgeStyle=entityRelationEdgeStyle;fontSize=12;html=1;endArrow=ERmandOne;startArrow=ERmandOne;rounded=0;exitX=1;exitY=0.5;exitDx=0;exitDy=0;" edge="1" parent="1" source="m9SJlO2-lQK2_VNLmcXq-42" target="m9SJlO2-lQK2_VNLmcXq-37">
          <mxGeometry width="100" height="100" relative="1" as="geometry">
            <mxPoint x="570" y="190" as="sourcePoint" />
            <mxPoint x="630" y="140" as="targetPoint" />
          </mxGeometry>
        </mxCell>
        <mxCell id="gUftmRRF79kb_P5Z-98f-13" value="" style="edgeStyle=entityRelationEdgeStyle;fontSize=12;html=1;endArrow=ERoneToMany;startArrow=ERmandOne;rounded=0;exitX=1;exitY=0.5;exitDx=0;exitDy=0;entryX=0;entryY=0.5;entryDx=0;entryDy=0;" edge="1" parent="1" source="m9SJlO2-lQK2_VNLmcXq-74" target="m9SJlO2-lQK2_VNLmcXq-37">
          <mxGeometry width="100" height="100" relative="1" as="geometry">
            <mxPoint x="364" y="420" as="sourcePoint" />
            <mxPoint x="570" y="350" as="targetPoint" />
            <Array as="points">
              <mxPoint x="590" y="410" />
            </Array>
          </mxGeometry>
        </mxCell>
      </root>
    </mxGraphModel>
  </diagram>
</mxfile>
